# xmcd
#
# Track frame offsets:
#	150
#	19324
#	30522
#	45674
#	60444
#	73071
#	85990
#	97844
#	112532
#	127727
#	145836
#	160586
#	176855
#	200852
#
# Disc length: 2825 seconds
#
# Revision: 0
# Processed by: cddbd v1.5.2PL0 Copyright (c) Steve Scherf et al.
# Submitted via: EZCDAudioConverter 2.1.7.1
#
DISCID=b10b070e
DTITLE=Meic Stevens - Gwymon
DYEAR=1900
DGENRE=
TTITLE0=Shwd Mae? Shwd Mae? (Hello? Hello?)
TTITLE1=Brenin Y Nos (King Of The Night)
TTITLE2=Cura Dy Law (Clap Your Hand)
TTITLE3=Traeth Yn Obaith (The Beach Of Despair)
TTITLE4=O Mor Lan Yr Oedd Y Dwr (O How Clear Was The Water)
TTITLE5=Galarnad (Lament)
TTITLE6=Merch O'r Ffatri Wlan (The Girl From The Wool Factory)
TTITLE7=Gwely Gwag (Empty Bed)
TTITLE8=Mynd I Weld Y Byd (Off To See The World)
TTITLE9=Daeth Neb Yn Ol (Nobody Came Back)
TTITLE10=Carangarw (Kangaroo)
TTITLE11=Mae'r Eliffant Yn Cofio Popeth (An Elephant Remembers Everything)
TTITLE12=Dic Penderyn [Live]
TTITLE13=Santiana [Live]
EXTD=
EXTT0=
EXTT1=
EXTT2=
EXTT3=
EXTT4=
EXTT5=
EXTT6=
EXTT7=
EXTT8=
EXTT9=
EXTT10=
EXTT11=
EXTT12=
EXTT13=
PLAYORDER=
